# Blender v3.0.0 OBJ File: ''
# www.blender.org
mtllib pentagon.mtl
o Cylinder001
v 12.743500 -50.468208 56.760292
v -53.982201 -50.468204 35.079792
v -53.982201 -50.468197 -35.079807
v 12.743500 -50.468193 -56.760307
v 53.982201 -50.468201 -0.000008
v 12.743500 50.468208 -56.760292
v 53.982201 50.468201 0.000008
v -53.982201 50.468204 -35.079792
v -53.982201 50.468197 35.079807
v 12.743500 50.468193 56.760307
vt 0.528100 0.000000
vt 0.950000 0.000000
vt 0.750000 0.000000
vt 0.750000 1.000000
vt 0.150000 0.000000
vt 0.050000 1.000000
vt 0.050000 0.000000
vt 0.350000 0.000000
vt 0.150000 1.000000
vt 0.550000 0.000000
vt 0.350000 1.000000
vt 0.550000 1.000000
vt 0.528100 1.000000
vt 0.067400 1.000000
vt 0.204500 0.000000
vt 0.067400 0.000000
vt 0.950000 1.000000
vn -0.6498 -0.5957 -0.4721
vn 0.2482 -0.5957 -0.7639
vn 0.8032 -0.5957 -0.0000
vn 0.8032 0.5957 0.0000
vn 0.2482 0.5957 -0.7639
vn -0.6498 -0.5957 0.4721
vn -0.6498 0.5957 -0.4721
vn 0.2482 -0.5957 0.7639
vn -0.6498 0.5957 0.4721
vn 0.2482 0.5957 0.7639
usemtl Default_OBJ
s 1
f 3/1/1 4/2/2 5/3/3
f 4/2/2 7/4/4 5/3/3
f 3/5/1 6/6/5 4/7/2
f 2/8/6 8/9/7 3/5/1
f 1/10/8 9/11/9 2/8/6
f 5/3/3 10/12/10 1/10/8
f 7/4/4 8/13/7 9/14/9
f 5/3/3 1/15/8 2/16/6
f 2/16/6 3/1/1 5/3/3
f 4/2/2 6/17/5 7/4/4
f 3/5/1 8/9/7 6/6/5
f 2/8/6 9/11/9 8/9/7
f 1/10/8 10/12/10 9/11/9
f 5/3/3 7/4/4 10/12/10
f 9/14/9 10/12/10 7/4/4
f 7/4/4 6/17/5 8/13/7
