# 3ds Max Wavefront OBJ Exporter v0.99 - (c)2007 guruware
# File Created: 27.12.2021 05:04:48

#
# object Teapot001
#

v  38.5030 102.5895 39.8331
v  55.2111 102.5895 -1.0731
v  55.0828 98.5475 -1.0731
v  38.4119 98.5475 39.7420
v  41.3272 98.5475 42.6573
v  59.1890 98.5475 -1.0731
v  -2.4032 102.5895 56.5413
v  -2.4032 98.5475 56.4129
v  -2.4032 98.5475 60.5191
v  -43.4826 102.5895 39.8331
v  -44.6041 98.5475 39.7420
v  -46.1337 98.5475 42.6573
v  -60.0176 102.5895 -1.0731
v  -59.8893 98.5475 -1.0731
v  -63.9954 98.5475 -1.0731
v  -43.3094 102.5895 -41.9793
v  -43.2183 98.5475 -41.8882
v  -46.1337 98.5475 -44.8036
v  -2.4032 102.5895 -58.6875
v  -2.4032 98.5475 -58.5591
v  -2.4032 98.5475 -62.6653
v  38.5030 102.5895 -41.9793
v  38.4119 98.5475 -41.8882
v  41.3272 98.5475 -44.8036
v  51.3488 66.5965 52.6789
v  73.3038 66.5965 -1.0731
v  55.9041 36.9553 57.2342
v  79.7197 36.9553 -1.0731
v  -2.4032 66.5965 74.6339
v  -2.4032 36.9553 81.0498
v  -56.1552 66.5965 52.6789
v  -60.7105 36.9553 57.2342
v  -78.1103 66.5965 -1.0731
v  -84.5261 36.9553 -1.0731
v  -56.1552 66.5965 -54.8251
v  -60.7105 36.9553 -59.3804
v  -2.4032 66.5965 -76.7802
v  -2.4032 36.9553 -83.1960
v  51.3488 66.5965 -54.8251
v  55.9041 36.9553 -59.3804
v  48.6156 15.7830 49.9458
v  69.4543 15.7830 -1.0731
v  41.3272 6.1592 42.6573
v  59.1890 6.1592 -1.0731
v  -2.4032 15.7830 70.7844
v  -2.4032 6.1592 60.5191
v  -53.4221 15.7830 49.9458
v  -46.1337 6.1592 42.6573
v  -74.2608 15.7830 -1.0731
v  -63.9954 6.1592 -1.0731
v  -53.4221 15.7830 -52.0920
v  -46.1337 6.1592 -44.8036
v  -2.4032 15.7830 -72.9306
v  -2.4032 6.1592 -62.6653
v  48.6156 15.7830 -52.0920
v  41.3272 6.1592 -44.8036
v  35.0410 1.9248 36.3711
v  50.3351 1.9248 -1.0731
v  -2.4032 0.0000 -1.0731
v  -2.4032 1.9248 51.6652
v  -39.8474 1.9248 36.3711
v  -55.1415 1.9248 -1.0731
v  -39.8474 1.9248 -38.5173
v  -2.4032 1.9248 -53.8114
v  35.0410 1.9248 -38.5173
v  -105.8268 86.0366 8.1657
v  -101.4640 81.9946 -1.0731
v  -68.1015 83.1495 -1.0731
v  -66.0485 87.7689 8.1657
v  -119.4284 73.9106 8.1657
v  -113.2691 73.9106 -1.0731
v  -110.1895 90.0786 -1.0731
v  -63.9954 92.3883 -1.0731
v  -125.5876 73.9106 -1.0731
v  -105.8268 86.0366 -10.3119
v  -66.0485 87.7689 -10.3119
v  -119.4284 73.9106 -10.3119
v  -110.5745 51.4872 8.1657
v  -106.5966 55.4330 -1.0731
v  -82.4730 30.7961 8.1657
v  -114.5523 47.5415 -1.0731
v  -80.4200 24.6369 -1.0731
v  -110.5745 51.4872 -10.3119
v  -82.4731 30.7961 -10.3119
v  101.7902 66.5965 12.9391
v  95.6310 73.9106 -1.0731
v  67.4013 58.5126 -1.0731
v  67.4013 41.5747 19.2523
v  120.7812 98.5475 6.6259
v  108.4627 98.5475 -1.0731
v  107.9494 59.2825 -1.0731
v  67.4013 24.6369 -1.0731
v  133.0996 98.5475 -1.0731
v  101.7902 66.5965 -15.0853
v  67.4013 41.5747 -21.3985
v  120.7812 98.5475 -8.7721
v  125.9780 101.2903 5.0861
v  113.5954 100.8572 -1.0731
v  120.7812 98.5475 3.5463
v  112.5689 98.5475 -1.0731
v  138.3606 101.7233 -1.0731
v  128.9934 98.5475 -1.0731
v  125.9780 101.2903 -7.2323
v  120.7812 98.5475 -5.6925
v  7.0833 122.4145 8.4134
v  10.9418 122.4145 -1.0731
v  -2.4032 129.3436 -1.0731
v  3.4275 110.8659 4.7576
v  5.8091 110.8659 -1.0731
v  -2.4032 122.4145 12.2719
v  -2.4032 110.8659 7.1392
v  -11.8897 122.4145 8.4134
v  -8.2339 110.8659 4.7576
v  -15.7482 122.4145 -1.0731
v  -10.6155 110.8659 -1.0731
v  -11.8897 122.4145 -10.5596
v  -8.2339 110.8659 -6.9038
v  -2.4032 122.4145 -14.4181
v  -2.4032 110.8659 -9.2854
v  7.0833 122.4145 -10.5596
v  3.4275 110.8659 -6.9038
v  21.6485 104.7067 22.9786
v  31.4725 104.7067 -1.0731
v  35.4965 98.5475 36.8266
v  50.9767 98.5475 -1.0731
v  -2.4032 104.7067 32.8026
v  -2.4032 98.5475 52.3068
v  -26.4550 104.7067 22.9786
v  -40.3029 98.5475 36.8266
v  -36.2789 104.7067 -1.0731
v  -55.7831 98.5475 -1.0731
v  -26.4550 104.7067 -25.1249
v  -40.3029 98.5475 -38.9728
v  -2.4032 104.7067 -34.9488
v  -2.4032 98.5475 -54.4530
v  21.6485 104.7067 -25.1249
v  35.4965 98.5475 -38.9728
# 137 vertices

vn -0.0966 0.9906 -0.0966
vn -0.1416 0.9899 -0.0000
vn -0.9995 0.0317 -0.0000
vn -0.7067 0.0319 -0.7067
vn 0.5936 0.5435 0.5936
vn 0.8400 0.5425 -0.0000
vn -0.0008 0.9899 -0.1421
vn -0.0010 0.0283 -0.9996
vn 0.0000 0.5425 0.8400
vn 0.0816 0.9729 -0.2165
vn 0.7268 -0.1773 -0.6636
vn -0.5949 0.5381 0.5971
vn 0.1496 0.9886 0.0134
vn 0.9994 0.0317 0.0148
vn -0.8403 0.5422 -0.0004
vn 0.0966 0.9906 0.0966
vn 0.7067 0.0319 0.7067
vn -0.5936 0.5435 -0.5936
vn -0.0000 0.9899 0.1416
vn -0.0000 0.0317 0.9995
vn -0.0000 0.5425 -0.8400
vn -0.0966 0.9906 0.0966
vn -0.7067 0.0319 0.7067
vn 0.5936 0.5435 -0.5936
vn 0.6738 0.3034 0.6738
vn 0.9532 0.3025 0.0000
vn 0.7028 -0.1107 0.7028
vn 0.9939 -0.1105 0.0000
vn -0.0000 0.3025 0.9532
vn -0.0000 -0.1105 0.9939
vn -0.6738 0.3034 0.6738
vn -0.7028 -0.1107 0.7028
vn -0.9532 0.3025 -0.0000
vn -0.9939 -0.1105 -0.0000
vn -0.6738 0.3034 -0.6738
vn -0.7028 -0.1107 -0.7028
vn 0.0000 0.3025 -0.9532
vn 0.0000 -0.1105 -0.9939
vn 0.6738 0.3034 -0.6738
vn 0.7028 -0.1107 -0.7028
vn 0.5792 -0.5735 0.5792
vn 0.8198 -0.5726 -0.0000
vn 0.4157 -0.8089 0.4157
vn 0.5888 -0.8083 -0.0000
vn 0.0000 -0.5726 0.8198
vn 0.0000 -0.8083 0.5888
vn -0.5792 -0.5735 0.5792
vn -0.4157 -0.8089 0.4157
vn -0.8198 -0.5726 0.0000
vn -0.5888 -0.8083 0.0000
vn -0.5792 -0.5735 -0.5792
vn -0.4157 -0.8089 -0.4157
vn -0.0000 -0.5726 -0.8198
vn -0.0000 -0.8083 -0.5888
vn 0.5792 -0.5735 -0.5792
vn 0.4157 -0.8089 -0.4157
vn 0.2016 -0.9585 0.2016
vn 0.2850 -0.9585 0.0000
vn 0.0000 -1.0000 0.0000
vn -0.0000 -0.9585 0.2850
vn -0.2016 -0.9585 0.2016
vn -0.2850 -0.9585 -0.0000
vn -0.2016 -0.9585 -0.2016
vn 0.0000 -0.9585 -0.2850
vn 0.2016 -0.9585 -0.2016
vn -0.0190 0.2047 0.9786
vn 0.2817 -0.9594 -0.0145
vn 0.0384 -0.9993 -0.0031
vn -0.0182 0.2727 0.9619
vn -0.2938 0.1264 0.9475
vn 0.9324 -0.3590 -0.0422
vn -0.4420 0.8969 0.0127
vn -0.0473 0.9989 0.0015
vn -0.9859 0.1669 0.0106
vn -0.0097 0.1786 -0.9839
vn -0.0177 0.2685 -0.9631
vn -0.2735 0.1013 -0.9565
vn -0.1217 -0.0998 0.9875
vn 0.8176 0.5756 -0.0138
vn -0.3352 -0.5061 0.7946
vn 0.6216 0.7828 -0.0294
vn -0.7747 -0.6322 0.0079
vn -0.5711 -0.8208 0.0076
vn -0.1055 -0.0889 -0.9904
vn -0.3009 -0.4869 -0.8200
vn 0.1595 0.0246 0.9869
vn -0.6970 0.7167 0.0236
vn -0.4862 0.8738 -0.0074
vn 0.3271 -0.2382 0.9145
vn -0.0062 0.3812 0.9245
vn -0.7234 0.6881 0.0562
vn 0.7677 -0.6406 -0.0173
vn 0.6538 -0.7567 -0.0025
vn 0.6465 -0.7616 -0.0447
vn 0.1845 0.0081 -0.9828
vn 0.3456 -0.2343 -0.9087
vn 0.0506 0.3154 -0.9476
vn 0.2319 0.7793 0.5821
vn 0.0416 0.9967 0.0704
vn 0.3158 -0.0454 -0.9477
vn 0.9011 -0.4334 0.0135
vn 0.9533 0.2997 -0.0371
vn -0.3219 0.9468 -0.0032
vn 0.3655 0.7294 -0.5783
vn 0.3394 -0.1174 0.9333
vn 0.6774 0.2871 0.6773
vn 0.9576 0.2882 0.0001
vn 0.0000 1.0000 0.0000
vn 0.5955 0.5396 0.5952
vn 0.8436 0.5370 0.0002
vn -0.0001 0.2882 0.9576
vn -0.0002 0.5370 0.8436
vn -0.6773 0.2871 0.6774
vn -0.5952 0.5396 0.5955
vn -0.9576 0.2882 -0.0001
vn -0.8436 0.5370 -0.0002
vn -0.6774 0.2871 -0.6773
vn -0.5955 0.5396 -0.5952
vn 0.0001 0.2882 -0.9576
vn 0.0002 0.5370 -0.8436
vn 0.6773 0.2871 -0.6774
vn 0.5952 0.5396 -0.5955
vn 0.1942 0.9616 0.1942
vn 0.2754 0.9613 -0.0000
vn 0.2121 0.9539 0.2121
vn 0.3011 0.9536 -0.0000
vn 0.0000 0.9613 0.2754
vn 0.0000 0.9536 0.3011
vn -0.1942 0.9616 0.1942
vn -0.2121 0.9539 0.2121
vn -0.2754 0.9613 0.0000
vn -0.3011 0.9536 0.0000
vn -0.1942 0.9616 -0.1942
vn -0.2121 0.9539 -0.2121
vn -0.0000 0.9613 -0.2754
vn -0.0000 0.9536 -0.3011
vn 0.1942 0.9616 -0.1942
vn 0.2121 0.9539 -0.2121
# 138 vertex normals

vt 0.9865 0.2643 0.0000
vt 0.9865 0.1324 0.0000
vt 0.9995 0.1324 0.0000
vt 0.9995 0.2640 0.0000
vt 0.0516 0.2922 0.0000
vt 0.0516 0.1399 0.0000
vt 0.0692 0.1447 0.0000
vt 0.0692 0.2872 0.0000
vt 0.9865 0.4134 0.0000
vt 0.9865 0.2815 0.0000
vt 0.9995 0.2818 0.0000
vt 0.9995 0.4134 0.0000
vt 0.1248 0.3988 0.0000
vt 0.1377 0.3869 0.0000
vt 0.9865 0.5458 0.0000
vt 0.9995 0.5494 0.0000
vt 0.7937 0.7412 0.0000
vt 0.7518 0.8876 0.0000
vt 0.7361 0.8781 0.0000
vt 0.7756 0.7407 0.0000
vt 0.1375 0.9944 0.0000
vt 0.0056 0.9944 0.0000
vt 0.0059 0.9814 0.0000
vt 0.1375 0.9814 0.0000
vt 0.7529 0.6186 0.0000
vt 0.7372 0.6265 0.0000
vt 0.2694 0.9944 0.0000
vt 0.2691 0.9814 0.0000
vt 0.1946 0.2440 0.0000
vt 0.2366 0.0976 0.0000
vt 0.2522 0.1071 0.0000
vt 0.2129 0.2440 0.0000
vt 0.4185 0.9944 0.0000
vt 0.2866 0.9944 0.0000
vt 0.2869 0.9814 0.0000
vt 0.4185 0.9814 0.0000
vt 0.2356 0.3666 0.0000
vt 0.2513 0.3588 0.0000
vt 0.5503 0.9944 0.0000
vt 0.5501 0.9814 0.0000
vt 0.3622 0.9683 0.0000
vt 0.2100 0.9683 0.0000
vt 0.2148 0.9507 0.0000
vt 0.3573 0.9507 0.0000
vt 0.9865 0.0005 0.0000
vt 0.9995 0.0008 0.0000
vt 0.1234 0.0312 0.0000
vt 0.1364 0.0430 0.0000
vt 0.6231 0.1643 0.0000
vt 0.7964 0.1643 0.0000
vt 0.7964 0.2673 0.0000
vt 0.6554 0.2673 0.0000
vt 0.6084 0.0688 0.0000
vt 0.7964 0.0688 0.0000
vt 0.8187 0.4592 0.0000
vt 0.8187 0.6325 0.0000
vt 0.7157 0.6002 0.0000
vt 0.7157 0.4592 0.0000
vt 0.9143 0.4592 0.0000
vt 0.9143 0.6472 0.0000
vt 0.8187 0.2859 0.0000
vt 0.7157 0.3183 0.0000
vt 0.9143 0.2713 0.0000
vt 0.4337 0.1035 0.0000
vt 0.2604 0.1035 0.0000
vt 0.2927 0.0005 0.0000
vt 0.4337 0.0005 0.0000
vt 0.4337 0.1991 0.0000
vt 0.2457 0.1991 0.0000
vt 0.6070 0.1035 0.0000
vt 0.5747 0.0005 0.0000
vt 0.6217 0.1991 0.0000
vt 0.1694 0.7913 0.0000
vt 0.1694 0.6180 0.0000
vt 0.2724 0.6503 0.0000
vt 0.2724 0.7913 0.0000
vt 0.0739 0.7913 0.0000
vt 0.0739 0.6033 0.0000
vt 0.1694 0.9646 0.0000
vt 0.2724 0.9323 0.0000
vt 0.0739 0.9793 0.0000
vt 0.9697 0.1643 0.0000
vt 0.9374 0.2673 0.0000
vt 0.9844 0.0688 0.0000
vt 0.6319 0.0005 0.0000
vt 0.7964 0.0005 0.0000
vt 0.0441 0.1378 0.0000
vt 0.0441 0.2901 0.0000
vt 0.0005 0.3026 0.0000
vt 0.0005 0.1249 0.0000
vt 0.9825 0.4592 0.0000
vt 0.9825 0.6237 0.0000
vt 0.1205 0.0311 0.0000
vt 0.0896 0.0005 0.0000
vt 0.9825 0.2948 0.0000
vt 0.1923 0.1531 0.0000
vt 0.1923 0.3054 0.0000
vt 0.1487 0.3179 0.0000
vt 0.1487 0.1402 0.0000
vt 0.4337 0.2673 0.0000
vt 0.2692 0.2673 0.0000
vt 0.2687 0.0465 0.0000
vt 0.2378 0.0158 0.0000
vt 0.5982 0.2673 0.0000
vt 0.1463 0.1378 0.0000
vt 0.1463 0.2901 0.0000
vt 0.1027 0.3026 0.0000
vt 0.1027 0.1249 0.0000
vt 0.0056 0.7913 0.0000
vt 0.0056 0.6268 0.0000
vt 0.2227 0.0311 0.0000
vt 0.1918 0.0005 0.0000
vt 0.0056 0.9558 0.0000
vt 0.0441 0.4323 0.0000
vt 0.0441 0.5846 0.0000
vt 0.0005 0.5971 0.0000
vt 0.0005 0.4194 0.0000
vt 0.9609 0.0005 0.0000
vt 0.1190 0.3988 0.0000
vt 0.0879 0.4294 0.0000
vt 0.5272 0.9497 0.0000
vt 0.6181 0.8562 0.0000
vt 0.6446 0.8669 0.0000
vt 0.5384 0.9761 0.0000
vt 0.4605 0.7925 0.0000
vt 0.3968 0.9502 0.0000
vt 0.3861 0.9767 0.0000
vt 0.3033 0.8593 0.0000
vt 0.2769 0.8705 0.0000
vt 0.3028 0.7288 0.0000
vt 0.2764 0.7182 0.0000
vt 0.3938 0.6354 0.0000
vt 0.3826 0.6090 0.0000
vt 0.5242 0.6349 0.0000
vt 0.5349 0.6084 0.0000
vt 0.6176 0.7258 0.0000
vt 0.6440 0.7146 0.0000
vt 0.1078 0.4654 0.0000
vt 0.1376 0.4795 0.0000
vt 0.1376 0.5870 0.0000
vt 0.1078 0.5936 0.0000
vt 0.5625 0.9694 0.0000
vt 0.5778 0.9372 0.0000
vt 0.6238 0.9354 0.0000
vt 0.6211 0.9706 0.0000
vt 0.0763 0.4450 0.0000
vt 0.1061 0.4590 0.0000
vt 0.1061 0.5873 0.0000
vt 0.0763 0.5939 0.0000
vt 0.0731 0.0013 0.0000
vt 0.0592 0.0341 0.0000
vt 0.0005 0.0358 0.0000
vt 0.0012 0.0005 0.0000
vt 0.0465 0.4590 0.0000
vt 0.0465 0.5873 0.0000
vt 0.2854 0.6599 0.0000
vt 0.2610 0.6337 0.0000
vt 0.3284 0.6084 0.0000
vt 0.3411 0.6414 0.0000
vt 0.1674 0.4654 0.0000
vt 0.1674 0.5936 0.0000
vt 0.0056 0.3766 0.0000
vt 0.0323 0.3530 0.0000
vt 0.0497 0.4091 0.0000
vt 0.0166 0.4214 0.0000
vt 0.3589 0.5369 0.0000
vt 0.3462 0.5667 0.0000
vt 0.2866 0.5667 0.0000
vt 0.2866 0.5369 0.0000
vt 0.7821 0.7923 0.0000
vt 0.8176 0.8001 0.0000
vt 0.8451 0.8887 0.0000
vt 0.8125 0.9006 0.0000
vt 0.7190 0.6127 0.0000
vt 0.7063 0.6425 0.0000
vt 0.6340 0.6425 0.0000
vt 0.6340 0.6127 0.0000
vt 0.1784 0.4222 0.0000
vt 0.1487 0.4156 0.0000
vt 0.1487 0.3250 0.0000
vt 0.1784 0.3121 0.0000
vt 0.7063 0.5829 0.0000
vt 0.6340 0.5829 0.0000
vt 0.2082 0.4156 0.0000
vt 0.2082 0.3250 0.0000
vt 0.3589 0.5965 0.0000
vt 0.2866 0.5965 0.0000
vt 0.2017 0.5760 0.0000
vt 0.1697 0.5932 0.0000
vt 0.1691 0.4807 0.0000
vt 0.2037 0.4832 0.0000
vt 0.6469 0.8306 0.0000
vt 0.7015 0.8272 0.0000
vt 0.7196 0.9293 0.0000
vt 0.6442 0.9692 0.0000
vt 0.6799 0.7197 0.0000
vt 0.7168 0.7486 0.0000
vt 0.9784 0.8007 0.0000
vt 0.9237 0.7994 0.0000
vt 0.9047 0.6621 0.0000
vt 0.9833 0.6289 0.0000
vt 0.9506 0.9441 0.0000
vt 0.9166 0.9130 0.0000
vt 0.8707 0.7833 0.0000
vt 0.8175 0.7960 0.0000
vt 0.7770 0.6289 0.0000
vt 0.8608 0.6451 0.0000
vt 0.9013 0.8929 0.0000
vt 0.8745 0.9305 0.0000
vt 0.3102 0.4101 0.0000
vt 0.3645 0.4039 0.0000
vt 0.3913 0.5399 0.0000
vt 0.3101 0.5137 0.0000
vt 0.2815 0.3352 0.0000
vt 0.3127 0.3004 0.0000
vt 0.6805 0.7004 0.0000
vt 0.7128 0.7309 0.0000
vt 0.0793 0.2639 0.0000
vt 0.0802 0.2375 0.0000
vt 0.0876 0.2411 0.0000
vt 0.0876 0.2810 0.0000
vt 0.9518 0.9637 0.0000
vt 0.9225 0.9317 0.0000
vt 0.0141 0.0717 0.0000
vt 0.0391 0.0544 0.0000
vt 0.0362 0.0717 0.0000
vt 0.0008 0.0988 0.0000
vt 0.8994 0.9124 0.0000
vt 0.8774 0.9498 0.0000
vt 0.0123 0.0414 0.0000
vt 0.0005 0.0543 0.0000
vt 0.2823 0.3171 0.0000
vt 0.3088 0.2815 0.0000
vt 0.0881 0.2810 0.0000
vt 0.0881 0.2545 0.0000
vt 0.0969 0.2378 0.0000
vt 0.0955 0.2777 0.0000
vt 0.2616 0.5962 0.0000
vt 0.2286 0.5963 0.0000
vt 0.2447 0.5564 0.0000
vt 0.6611 0.5420 0.0000
vt 0.6799 0.5420 0.0000
vt 0.6799 0.5792 0.0000
vt 0.6493 0.5792 0.0000
vt 0.2846 0.5725 0.0000
vt 0.6697 0.3085 0.0000
vt 0.6509 0.3085 0.0000
vt 0.6391 0.2713 0.0000
vt 0.6697 0.2713 0.0000
vt 0.2846 0.5395 0.0000
vt 0.6885 0.3085 0.0000
vt 0.7002 0.2713 0.0000
vt 0.2609 0.5165 0.0000
vt 0.9609 0.9200 0.0000
vt 0.9609 0.9012 0.0000
vt 0.9982 0.8894 0.0000
vt 0.9982 0.9200 0.0000
vt 0.2278 0.5166 0.0000
vt 0.9609 0.9388 0.0000
vt 0.9982 0.9506 0.0000
vt 0.2048 0.5402 0.0000
vt 0.4142 0.3085 0.0000
vt 0.3954 0.3085 0.0000
vt 0.3836 0.2713 0.0000
vt 0.4142 0.2713 0.0000
vt 0.2049 0.5733 0.0000
vt 0.4330 0.3085 0.0000
vt 0.4448 0.2713 0.0000
vt 0.6987 0.5420 0.0000
vt 0.7105 0.5792 0.0000
vt 0.5861 0.5318 0.0000
vt 0.5023 0.5321 0.0000
vt 0.5333 0.4554 0.0000
vt 0.5536 0.4553 0.0000
vt 0.6107 0.5899 0.0000
vt 0.4787 0.5904 0.0000
vt 0.6445 0.4717 0.0000
vt 0.5678 0.4407 0.0000
vt 0.7028 0.4953 0.0000
vt 0.6442 0.3880 0.0000
vt 0.5677 0.4204 0.0000
vt 0.7023 0.3633 0.0000
vt 0.5841 0.3296 0.0000
vt 0.5531 0.4063 0.0000
vt 0.6077 0.2713 0.0000
vt 0.5004 0.3299 0.0000
vt 0.5328 0.4064 0.0000
vt 0.4757 0.2718 0.0000
vt 0.4420 0.3899 0.0000
vt 0.5187 0.4209 0.0000
vt 0.3836 0.3664 0.0000
vt 0.4423 0.4737 0.0000
vt 0.5187 0.4412 0.0000
vt 0.3841 0.4983 0.0000
# 294 texture coords

o Teapot001
g Teapot001
f 1/1/1 2/2/2 3/3/3 
f 3/3/3 4/4/4 1/1/1 
f 5/5/5 6/6/6 2/7/2 
f 2/7/2 1/8/1 5/5/5 
f 7/9/7 1/10/1 4/11/4 
f 4/11/4 8/12/8 7/9/7 
f 9/13/9 5/5/5 1/8/1 
f 1/8/1 7/14/7 9/13/9 
f 10/15/10 7/9/7 8/12/8 
f 8/12/8 11/16/11 10/15/10 
f 12/17/12 9/18/9 7/19/7 
f 7/19/7 10/20/10 12/17/12 
f 13/21/13 10/22/10 11/23/11 
f 11/23/11 14/24/14 13/21/13 
f 15/25/15 12/17/12 10/20/10 
f 10/20/10 13/26/13 15/25/15 
f 16/27/16 13/21/13 14/24/14 
f 14/24/14 17/28/17 16/27/16 
f 18/29/18 15/30/15 13/31/13 
f 13/31/13 16/32/16 18/29/18 
f 19/33/19 16/34/16 17/35/17 
f 17/35/17 20/36/20 19/33/19 
f 21/37/21 18/29/18 16/32/16 
f 16/32/16 19/38/19 21/37/21 
f 22/39/22 19/33/19 20/36/20 
f 20/36/20 23/40/23 22/39/22 
f 24/41/24 21/42/21 19/43/19 
f 19/43/19 22/44/22 24/41/24 
f 2/2/2 22/45/22 23/46/23 
f 23/46/23 3/3/3 2/2/2 
f 6/6/6 24/47/24 22/48/22 
f 22/48/22 2/7/2 6/6/6 
f 25/49/25 26/50/26 6/51/6 
f 6/51/6 5/52/5 25/49/25 
f 27/53/27 28/54/28 26/50/26 
f 26/50/26 25/49/25 27/53/27 
f 29/55/29 25/56/25 5/57/5 
f 5/57/5 9/58/9 29/55/29 
f 30/59/30 27/60/27 25/56/25 
f 25/56/25 29/55/29 30/59/30 
f 31/61/31 29/55/29 9/58/9 
f 9/58/9 12/62/12 31/61/31 
f 32/63/32 30/59/30 29/55/29 
f 29/55/29 31/61/31 32/63/32 
f 33/64/33 31/65/31 12/66/12 
f 12/66/12 15/67/15 33/64/33 
f 34/68/34 32/69/32 31/65/31 
f 31/65/31 33/64/33 34/68/34 
f 35/70/35 33/64/33 15/67/15 
f 15/67/15 18/71/18 35/70/35 
f 36/72/36 34/68/34 33/64/33 
f 33/64/33 35/70/35 36/72/36 
f 37/73/37 35/74/35 18/75/18 
f 18/75/18 21/76/21 37/73/37 
f 38/77/38 36/78/36 35/74/35 
f 35/74/35 37/73/37 38/77/38 
f 39/79/39 37/73/37 21/76/21 
f 21/76/21 24/80/24 39/79/39 
f 40/81/40 38/77/38 37/73/37 
f 37/73/37 39/79/39 40/81/40 
f 26/50/26 39/82/39 24/83/24 
f 24/83/24 6/51/6 26/50/26 
f 28/54/28 40/84/40 39/82/39 
f 39/82/39 26/50/26 28/54/28 
f 41/85/41 42/86/42 28/54/28 
f 28/54/28 27/53/27 41/85/41 
f 43/87/43 44/88/44 42/89/42 
f 42/89/42 41/90/41 43/87/43 
f 45/91/45 41/92/41 27/60/27 
f 27/60/27 30/59/30 45/91/45 
f 46/93/46 43/87/43 41/90/41 
f 41/90/41 45/94/45 46/93/46 
f 47/95/47 45/91/45 30/59/30 
f 30/59/30 32/63/32 47/95/47 
f 48/96/48 46/97/46 45/98/45 
f 45/98/45 47/99/47 48/96/48 
f 49/100/49 47/101/47 32/69/32 
f 32/69/32 34/68/34 49/100/49 
f 50/102/50 48/96/48 47/99/47 
f 47/99/47 49/103/49 50/102/50 
f 51/104/51 49/100/49 34/68/34 
f 34/68/34 36/72/36 51/104/51 
f 52/105/52 50/106/50 49/107/49 
f 49/107/49 51/108/51 52/105/52 
f 53/109/53 51/110/51 36/78/36 
f 36/78/36 38/77/38 53/109/53 
f 54/111/54 52/105/52 51/108/51 
f 51/108/51 53/112/53 54/111/54 
f 55/113/55 53/109/53 38/77/38 
f 38/77/38 40/81/40 55/113/55 
f 56/114/56 54/115/54 53/116/53 
f 53/116/53 55/117/55 56/114/56 
f 42/86/42 55/118/55 40/84/40 
f 40/84/40 28/54/28 42/86/42 
f 44/88/44 56/119/56 55/120/55 
f 55/120/55 42/89/42 44/88/44 
f 57/121/57 58/122/58 44/123/44 
f 44/123/44 43/124/43 57/121/57 
f 58/122/58 57/121/57 59/125/59 
f 60/126/60 57/121/57 43/124/43 
f 43/124/43 46/127/46 60/126/60 
f 57/121/57 60/126/60 59/125/59 
f 61/128/61 60/126/60 46/127/46 
f 46/127/46 48/129/48 61/128/61 
f 60/126/60 61/128/61 59/125/59 
f 62/130/62 61/128/61 48/129/48 
f 48/129/48 50/131/50 62/130/62 
f 61/128/61 62/130/62 59/125/59 
f 63/132/63 62/130/62 50/131/50 
f 50/131/50 52/133/52 63/132/63 
f 62/130/62 63/132/63 59/125/59 
f 64/134/64 63/132/63 52/133/52 
f 52/133/52 54/135/54 64/134/64 
f 63/132/63 64/134/64 59/125/59 
f 65/136/65 64/134/64 54/135/54 
f 54/135/54 56/137/56 65/136/65 
f 64/134/64 65/136/65 59/125/59 
f 58/122/58 65/136/65 56/137/56 
f 56/137/56 44/123/44 58/122/58 
f 65/136/65 58/122/58 59/125/59 
f 66/138/66 67/139/67 68/140/68 
f 68/140/68 69/141/69 66/138/66 
f 70/142/70 71/143/71 67/144/67 
f 67/144/67 66/145/66 70/142/70 
f 72/146/72 66/147/66 69/148/69 
f 69/148/69 73/149/73 72/146/72 
f 74/150/74 70/151/70 66/152/66 
f 66/152/66 72/153/72 74/150/74 
f 75/154/75 72/146/72 73/149/73 
f 73/149/73 76/155/76 75/154/75 
f 77/156/77 74/157/74 72/158/72 
f 72/158/72 75/159/75 77/156/77 
f 67/139/67 75/160/75 76/161/76 
f 76/161/76 68/140/68 67/139/67 
f 71/162/71 77/163/77 75/164/75 
f 75/164/75 67/165/67 71/162/71 
f 78/166/78 79/167/79 71/168/71 
f 71/168/71 70/169/70 78/166/78 
f 80/170/80 34/171/81 79/172/79 
f 79/172/79 78/173/78 80/170/80 
f 81/174/82 78/175/78 70/176/70 
f 70/176/70 74/177/74 81/174/82 
f 82/178/83 80/179/80 78/180/78 
f 78/180/78 81/181/82 82/178/83 
f 83/182/84 81/174/82 74/177/74 
f 74/177/74 77/183/77 83/182/84 
f 84/184/85 82/178/83 81/181/82 
f 81/181/82 83/185/84 84/184/85 
f 79/167/79 83/186/84 77/187/77 
f 77/187/77 71/168/71 79/167/79 
f 34/188/81 84/189/85 83/190/84 
f 83/190/84 79/191/79 34/188/81 
f 85/192/86 86/193/87 87/194/88 
f 87/194/88 88/195/89 85/192/86 
f 89/196/90 90/197/91 86/193/87 
f 86/193/87 85/192/86 89/196/90 
f 91/198/92 85/199/86 88/200/89 
f 88/200/89 92/201/93 91/198/92 
f 93/202/94 89/203/90 85/199/86 
f 85/199/86 91/198/92 93/202/94 
f 94/204/95 91/205/92 92/206/93 
f 92/206/93 95/207/96 94/204/95 
f 96/208/97 93/209/94 91/205/92 
f 91/205/92 94/204/95 96/208/97 
f 86/210/87 94/211/95 95/212/96 
f 95/212/96 87/213/88 86/210/87 
f 90/214/91 96/215/97 94/211/95 
f 94/211/95 86/210/87 90/214/91 
f 97/216/98 98/217/99 90/197/91 
f 90/197/91 89/196/90 97/216/98 
f 99/218/100 100/219/101 98/220/99 
f 98/220/99 97/221/98 99/218/100 
f 101/222/102 97/223/98 89/203/90 
f 89/203/90 93/202/94 101/222/102 
f 102/224/103 99/225/100 97/226/98 
f 97/226/98 101/227/102 102/224/103 
f 103/228/104 101/229/102 93/209/94 
f 93/209/94 96/208/97 103/228/104 
f 104/230/105 102/224/103 101/227/102 
f 101/227/102 103/231/104 104/230/105 
f 98/232/99 103/233/104 96/215/97 
f 96/215/97 90/214/91 98/232/99 
f 100/234/101 104/235/105 103/236/104 
f 103/236/104 98/237/99 100/234/101 
f 105/238/106 106/239/107 107/240/108 
f 108/241/109 109/242/110 106/243/107 
f 106/243/107 105/244/106 108/241/109 
f 110/245/111 105/238/106 107/240/108 
f 111/246/112 108/247/109 105/248/106 
f 105/248/106 110/249/111 111/246/112 
f 112/250/113 110/245/111 107/240/108 
f 113/251/114 111/246/112 110/249/111 
f 110/249/111 112/252/113 113/251/114 
f 114/253/115 112/250/113 107/240/108 
f 115/254/116 113/255/114 112/256/113 
f 112/256/113 114/257/115 115/254/116 
f 116/258/117 114/253/115 107/240/108 
f 117/259/118 115/254/116 114/257/115 
f 114/257/115 116/260/117 117/259/118 
f 118/261/119 116/258/117 107/240/108 
f 119/262/120 117/263/118 116/264/117 
f 116/264/117 118/265/119 119/262/120 
f 120/266/121 118/261/119 107/240/108 
f 121/267/122 119/262/120 118/265/119 
f 118/265/119 120/268/121 121/267/122 
f 106/239/107 120/266/121 107/240/108 
f 109/242/110 121/269/122 120/270/121 
f 120/270/121 106/243/107 109/242/110 
f 122/271/123 123/272/124 109/273/110 
f 109/273/110 108/274/109 122/271/123 
f 124/275/125 125/276/126 123/272/124 
f 123/272/124 122/271/123 124/275/125 
f 126/277/127 122/271/123 108/274/109 
f 108/274/109 111/278/112 126/277/127 
f 127/279/128 124/275/125 122/271/123 
f 122/271/123 126/277/127 127/279/128 
f 128/280/129 126/277/127 111/278/112 
f 111/278/112 113/281/114 128/280/129 
f 129/282/130 127/279/128 126/277/127 
f 126/277/127 128/280/129 129/282/130 
f 130/283/131 128/280/129 113/281/114 
f 113/281/114 115/284/116 130/283/131 
f 131/285/132 129/282/130 128/280/129 
f 128/280/129 130/283/131 131/285/132 
f 132/286/133 130/283/131 115/284/116 
f 115/284/116 117/287/118 132/286/133 
f 133/288/134 131/285/132 130/283/131 
f 130/283/131 132/286/133 133/288/134 
f 134/289/135 132/286/133 117/287/118 
f 117/287/118 119/290/120 134/289/135 
f 135/291/136 133/288/134 132/286/133 
f 132/286/133 134/289/135 135/291/136 
f 136/292/137 134/289/135 119/290/120 
f 119/290/120 121/293/122 136/292/137 
f 137/294/138 135/291/136 134/289/135 
f 134/289/135 136/292/137 137/294/138 
f 123/272/124 136/292/137 121/293/122 
f 121/293/122 109/273/110 123/272/124 
f 125/276/126 137/294/138 136/292/137 
f 136/292/137 123/272/124 125/276/126 
# 240 faces

